<?xml version="1.0" encoding="iso-8859-1"?>
<!-- Generator: Adobe Illustrator 19.0.0, SVG Export Plug-In . SVG Version: 6.00 Build 0)  -->
<svg version="1.1" id="Capa_1" xmlns="http://www.w3.org/2000/svg" xmlns:xlink="http://www.w3.org/1999/xlink" x="0px" y="0px"
	 viewBox="0 0 511.999 511.999" style="enable-background:new 0 0 511.999 511.999;" xml:space="preserve">
<g>
	<g>
		<path d="M399.196,85.905c-0.209-2.39-1.55-4.536-3.606-5.772c-5.493-3.3-11.658-5.312-18.038-5.961
			c-2.557-9.347-7.722-18.306-14.921-25.723c-1.636-1.686-3.969-2.506-6.302-2.217c-11.227,1.397-21.59,5.717-29.789,12.311
			c-5.525-2.93-11.632-4.666-18.105-4.996c-2.404-0.112-4.706,0.909-6.213,2.775c-26.734,33.103-24.423,83.212,3.472,103.76
			c-7.685,7.514-16.553,14.058-26.474,19.471c-60.352,32.926-65.888,80.46-66.094,82.467c-0.422,4.102,2.554,7.755,6.653,8.196
			c0.271,0.029,0.541,0.044,0.808,0.044c3.766,0,7.011-2.846,7.443-6.672c0.191-1.698,5.306-41.931,58.367-70.878
			c12.75-6.957,23.985-15.603,33.468-25.681c3.57,1.003,8.569,3.055,16.559,3.056C371.981,170.084,402.958,128.985,399.196,85.905z
			 M354.421,61.72c3.43,4.138,6.069,8.734,7.768,13.495c-4.954,1.176-9.833,3.144-14.52,5.857
			c-2.385-4.882-5.348-9.247-8.823-12.999C343.395,65.061,348.699,62.891,354.421,61.72z M311.917,133.207
			c-0.243,1.131-0.497,2.454-0.69,3.572c-0.231,1.356-0.418,2.66-0.58,3.986c-0.138,1.117-0.26,2.236-0.353,3.357
			c-0.001,0.016-0.004,0.031-0.005,0.046c-16.365-17.34-15.631-51.506,1.16-75.215c11.331,2.079,19.671,10.836,23.946,21.367
			C323.485,101.649,315.329,117.111,311.917,133.207z M325.018,152.76c-0.944-39.664,32.358-73.286,59.472-61.523
			C385.438,130.858,352.217,164.503,325.018,152.76z"/>
	</g>
</g>
<g>
	<g>
		<path d="M210.737,143.8c-2.665-0.288-5.285,0.876-6.862,3.046c-7.908,10.887-9.433,25.278-3.981,37.555
			c5.452,12.278,17.15,20.795,30.528,22.228c0.269,0.029,0.534,0.043,0.8,0.043c2.382,0,4.642-1.136,6.06-3.089
			C254.331,180.118,239.619,146.897,210.737,143.8z M227.486,190.77c-13.003-4.178-19.432-18.661-13.813-31.107
			C226.673,163.839,233.107,178.323,227.486,190.77z"/>
	</g>
</g>
<g>
	<g>
		<path d="M349.502,222.72c-4.91-28.682-38.987-41.226-61.327-22.753c-2.068,1.709-3.064,4.394-2.612,7.037
			c4.879,28.543,38.886,41.304,61.327,22.755C348.959,228.05,349.955,225.365,349.502,222.72z M301.576,208.941
			c11.899-6.317,26.876-1.011,31.912,11.846C321.592,227.106,306.61,221.796,301.576,208.941z"/>
	</g>
</g>
<g>
	<g>
		<path d="M240.719,444.391c-0.008-0.106-10.312-90.377-10.324-90.483c-0.859-7.536-7.647-12.964-15.218-12.103l-4.225,0.482
			c-7.407-24.091-9.475-37.258-25.717-56.512c-0.031-0.037-0.064-0.075-0.096-0.111l-15.702-17.892
			c-0.031-0.036-0.064-0.071-0.096-0.107c-0.292-0.32-7.261-7.895-16.989-12.804l-43.045-21.726
			c-8.368-4.224-17.315-4.517-25.388,0.625l-30.564-65.615c-14.352-38.956-62.733-18.985-51.746,16.094l34.108,107.544
			c3.997,15.411,15.715,28.252,26.522,33.65c45.189,22.808,41.609,20.246,49.849,29.474c-4.509,2.802-7.023,7.893-6.412,13.234
			c0.026,0.229,3.262,28.585,3.262,28.585l5.68,49.772c1.693,14.805,14.296,19.114,20.722,19.324
			c0.081,0.002,0.163,0.004,0.244,0.004h84.535C234.697,465.825,241.763,455.433,240.719,444.391z M69.16,312.139
			c-10.113-5.79-15.813-13.808-19.097-24.695L15.964,179.93c-2.746-11.204,2.886-18.119,11.17-18.119
			c6.34,0,10.084,5.962,12.302,11.898c0.146,0.385,33.686,72.363,33.86,72.736c-5.444,13.042-1.784,25.819,11.553,32.551
			c39.333,19.853,37.184,19.106,39.628,19.106c7.827,0,10.426-10.627,3.383-14.184c-39.417-19.895-40.473-19.611-41.691-23.819
			c-0.863-2.973,0.273-6.987,1.935-9.858c0.03-0.054,3.281-5.321,8.639-5.321c1.761,0,3.717,0.536,5.81,1.594l43.046,21.726
			c6.875,3.47,12.129,8.95,12.645,9.499l15.575,17.748c14.068,16.901,15.543,27.576,21.986,48.53
			c-49.535,5.654-38.024,4.34-66.568,7.597C111.8,332.084,118.628,337.107,69.16,312.139z M120.705,367.67
			c22.726-2.594,72.319-8.253,94.939-10.836l2.273,19.913c-46.383,5.293-48.516,5.537-94.94,10.835L120.705,367.67z M220.119,450.84
			h-84.386c-1.13-0.058-5.607-0.63-6.226-6.043l-4.831-42.325c10.428-1.19,82.225-9.384,94.941-10.835l6.164,54.006
			C225.868,449.532,224.609,450.84,220.119,450.84z"/>
	</g>
</g>
<g>
	<g>
		<path d="M458.951,168.018l-33.629,65.937c-6.447-4.169-15.431-6.006-25.704-0.82c-60.319,30.445-49.535,22.559-75.833,52.53
			l0.002,0.001c-1.043,1.228-13.26,15.898-17.911,30.917c-0.011,0.034-0.022,0.068-0.032,0.103l-7.872,25.6
			c-4.573-0.521-4.787-0.571-5.792-0.571c-6.991,0-12.859,5.242-13.65,12.191c-0.001,0.004-3.264,28.585-3.264,28.585
			c-0.017,0.151-7.052,61.782-7.065,61.934c-0.935,9.866,4.975,21.401,20.604,21.401h27.805c4.139,0,7.493-3.355,7.493-7.493
			c0-4.138-3.354-7.493-7.493-7.493h-27.805c-4.503,0-5.749-1.316-5.663-5.197l6.163-54.006c13.78,1.573,81.19,9.265,94.942,10.835
			l-4.83,42.323c-0.554,4.844-4.137,5.874-6.313,6.045h-21.527c-4.139,0-7.493,3.355-7.493,7.493c0,4.138,3.354,7.493,7.493,7.493
			h21.762c7.05,0,19.323-4.966,20.967-19.33l5.68-49.77c0.001-0.006,0-0.013,0.001-0.019l3.26-28.565
			c0.418-3.649-0.61-7.241-2.895-10.116c-0.998-1.257-2.193-2.296-3.517-3.119l2.914-3.265c0.018-0.021,0.036-0.04,0.054-0.061
			l0.28-0.313c0.756-0.813,4.452-4.562,11.259-7.999l35.342-17.836c0.107-0.054,0.213-0.11,0.316-0.169
			c6.176-3.497,21.038-13.726,26.179-33.374l8.85-25.422c1.361-3.908-0.704-8.179-4.613-9.54c-3.909-1.362-8.178,0.704-9.54,4.613
			l-8.949,25.704c-0.03,0.086-0.059,0.173-0.085,0.26c-0.011,0.033-0.021,0.067-0.03,0.101c-0.026,0.089-0.052,0.179-0.074,0.27
			c-3.602,14.111-14.351,21.616-18.973,24.264l-35.176,17.754c-8.745,4.415-13.792,9.341-15.556,11.254
			c-0.025,0.028-0.052,0.057-0.078,0.086l-0.379,0.424c-0.02,0.023-0.04,0.046-0.06,0.068l-8.829,9.889
			c-33.512-3.824-19.908-2.272-66.568-7.597c10.762-35.001,7.466-31.982,37.561-66.279c7.162-7.608,10.653-8.493,55.69-31.224
			c12.339-6.228,18.064,7.797,16.385,13.586c-1.238,4.251-2.438,4.006-41.691,23.818c-3.694,1.865-5.177,6.372-3.312,10.066
			c1.864,3.694,6.369,5.177,10.066,3.313l36.256-18.3c8.604-4.343,11.886-10.494,13.123-14.89c1.941-6.898,0.165-13.45-1.503-17.501
			c0.286-0.56,36.906-72.309,37.131-72.896c3.031-8.085,7.691-13.655,16.046-11.343c9.912,3.25,8.323,13.831,7.449,17.469
			l-16.271,46.739c-1.361,3.908,0.704,8.179,4.613,9.54c3.905,1.358,8.179-0.704,9.54-4.613l16.384-47.064
			c0.07-0.202,0.132-0.407,0.185-0.613C520.181,146.882,472.906,130.466,458.951,168.018z M366.106,365.146l22.112,2.524
			l-2.272,19.912c-14.92-1.702-80.047-9.136-94.94-10.835l2.273-19.913C316,359.428,280.425,355.368,366.106,365.146z"/>
	</g>
</g>
<g>
</g>
<g>
</g>
<g>
</g>
<g>
</g>
<g>
</g>
<g>
</g>
<g>
</g>
<g>
</g>
<g>
</g>
<g>
</g>
<g>
</g>
<g>
</g>
<g>
</g>
<g>
</g>
<g>
</g>
</svg>
